<svg id="polygon" data-name="Polygon" xmlns="http://www.w3.org/2000/svg" viewBox="0 0 469 415"><defs><style>.cls-1{fill:#f83131fill-rule:evenodd;}</style></defs><g id="Page-1"><g id="Home"><path id="Fill-87-Copy-15" class="cls-1" d="M340.65.09c8.7-.12,13.83,2.4,18.25,10.14q53.06,92.91,107,185.34c4.11,7.05,4.19,12.48.08,19.55q-55.4,95.07-110.07,190.57c-4.2,7.33-9.26,9.26-17.22,9.24Q232,414.54,125.39,415c-9,.05-13.71-3-18-10.52-33.09-58-66.67-115.66-99.91-173.54-9-15.61-10.79-30.1-.24-47.49C41.29,127.26,73.73,70.06,106.07,12.84,111.67,2.93,117.86-.22,128.9,0c34.77.72,69.56.27,104.34.27C269,.28,304.85.55,340.65.09Z" transform="translate(0 0)"/></g></g></svg>
