<?xml version="1.0" encoding="UTF-8" standalone="no" ?>
<!DOCTYPE svg PUBLIC "-//W3C//DTD SVG 1.1//EN" "http://www.w3.org/Graphics/SVG/1.1/DTD/svg11.dtd">
<svg xmlns="http://www.w3.org/2000/svg" xmlns:xlink="http://www.w3.org/1999/xlink" version="1.1" width="1080" height="1080" viewBox="0 0 1080 1080" xml:space="preserve">
<desc>Created with Fabric.js 5.2.4</desc>
<defs>
</defs>
<rect x="0" y="0" width="100%" height="100%" fill="transparent"></rect>
<g transform="matrix(1 0 0 1 540 540)" id="902891d2-847b-4edf-a53e-51a2f7e70318"  >
<rect style="stroke: none; stroke-width: 1; stroke-dasharray: none; stroke-linecap: butt; stroke-dashoffset: 0; stroke-linejoin: miter; stroke-miterlimit: 4; fill: rgb(255,255,255); fill-rule: nonzero; opacity: 1;" vector-effect="non-scaling-stroke"  x="-540" y="-540" rx="0" ry="0" width="1080" height="1080" />
</g>
<g transform="matrix(1 0 0 1 540 540)" id="8ce637e0-e325-422d-af27-ecfcc512654e"  >
</g>
<g transform="matrix(2.6 0 0 4.17 540 540)"  >
<g style="" vector-effect="non-scaling-stroke"   >
		<g transform="matrix(0.13 0 0 -0.13 0 0)"  >
<path style="stroke: none; stroke-width: 1; stroke-dasharray: none; stroke-linecap: butt; stroke-dashoffset: 0; stroke-linejoin: miter; stroke-miterlimit: 4; fill: rgb(0,0,0); fill-rule: nonzero; opacity: 1;" vector-effect="non-scaling-stroke"  transform=" translate(-2602.07, -2612.15)" d="M 2051 5185 C 1758 5124 1445 4997 1192 4836 C 626 4476 217 3915 55 3278 C 2 3070 0 3051 0 2623 C 0 2176 4 2134 75 1892 C 339 987 1067 296 1988 76 C 2203 24 2295 15 2595 15 C 2839 16 2892 19 3004 38 C 3556 134 4021 368 4409 744 C 5023 1342 5301 2171 5174 3028 C 5115 3429 4933 3860 4683 4192 C 4300 4700 3738 5059 3129 5184 C 3005 5210 2997 5210 2584 5209 C 2183 5209 2160 5208 2051 5185 z M 2885 5029 C 3254 4984 3621 4847 3934 4638 C 4281 4407 4576 4069 4760 3695 C 4845 3521 4892 3395 4936 3221 C 4984 3029 5000 2910 5007 2703 C 5020 2290 4939 1913 4759 1550 C 4631 1293 4495 1103 4291 900 C 3929 540 3457 305 2935 224 C 2769 198 2404 198 2240 224 C 1092 403 243 1327 171 2477 C 89 3788 1081 4931 2395 5039 C 2516 5049 2761 5044 2885 5029 z" stroke-linecap="round" />
</g>
		<g transform="matrix(0.13 0 0 -0.13 -1.8 -1.56)"  >
<path style="stroke: none; stroke-width: 1; stroke-dasharray: none; stroke-linecap: butt; stroke-dashoffset: 0; stroke-linejoin: miter; stroke-miterlimit: 4; fill: rgb(0,0,0); fill-rule: nonzero; opacity: 1;" vector-effect="non-scaling-stroke"  transform=" translate(-2588.58, -2623.83)" d="M 2495 3341 C 2441 3327 1126 2708 1101 2685 C 1070 2655 1069 2608 1098 2577 C 1110 2564 1177 2527 1247 2495 C 1318 2462 1378 2431 1382 2425 C 1386 2420 1390 2360 1390 2294 C 1390 2177 1389 2172 1367 2157 C 1330 2133 1315 2087 1330 2050 C 1343 2019 1384 1990 1415 1990 C 1447 1990 1488 2020 1499 2051 C 1512 2088 1493 2142 1461 2160 C 1442 2170 1440 2179 1440 2280 C 1440 2340 1443 2391 1448 2393 C 1452 2396 1553 2352 1673 2297 L 1890 2196 L 1890 2150 C 1890 2056 1973 1993 2165 1945 C 2303 1910 2404 1899 2589 1899 C 2853 1899 3084 1944 3202 2019 C 3257 2054 3272 2078 3280 2144 L 3285 2193 L 3665 2371 C 3874 2468 4057 2559 4073 2573 C 4102 2599 4108 2636 4090 2671 C 4084 2681 4052 2704 4018 2721 C 3862 2800 2719 3329 2684 3339 C 2641 3351 2541 3352 2495 3341 z M 3285 3003 C 3615 2849 3920 2706 3963 2685 C 4027 2655 4041 2644 4038 2627 C 4036 2611 3960 2572 3665 2434 C 3462 2338 3292 2260 3288 2260 C 3283 2260 3280 2310 3280 2372 L 3280 2484 L 3208 2555 C 3052 2706 2820 2779 2536 2767 C 2290 2757 2098 2686 1963 2555 L 1890 2485 L 1890 2372 C 1890 2311 1889 2260 1887 2260 C 1885 2260 1785 2306 1664 2363 L 1445 2467 L 1440 2561 C 1435 2647 1433 2655 1415 2655 C 1397 2655 1395 2647 1392 2578 C 1390 2535 1385 2500 1380 2500 C 1363 2500 1143 2608 1135 2620 C 1131 2626 1134 2638 1141 2645 C 1153 2656 2250 3173 2450 3262 C 2508 3287 2524 3290 2600 3287 L 2685 3284 L 3285 3003 z M 2855 2682 C 2963 2652 3045 2615 3115 2565 C 3215 2494 3220 2483 3220 2343 L 3220 2223 L 3163 2252 C 3028 2318 2837 2351 2586 2351 C 2414 2351 2309 2341 2192 2314 C 2116 2296 2012 2258 1976 2235 L 1950 2218 L 1950 2342 L 1950 2467 L 2008 2522 C 2093 2604 2218 2662 2376 2695 C 2477 2716 2761 2708 2855 2682 z M 2877 2275 C 2990 2257 3104 2221 3164 2186 C 3239 2142 3236 2102 3153 2058 C 2916 1930 2378 1917 2079 2031 C 2000 2062 1943 2108 1953 2134 C 1979 2201 2195 2272 2440 2294 C 2524 2301 2784 2290 2877 2275 z M 1445 2100 C 1457 2080 1439 2050 1415 2050 C 1400 2050 1389 2057 1385 2070 C 1376 2097 1386 2110 1415 2110 C 1428 2110 1442 2105 1445 2100 z" stroke-linecap="round" />
</g>
</g>
</g>
</svg>